<svg width="24" height="24" viewBox="0 0 24 24" fill="none" xmlns="http://www.w3.org/2000/svg">
<path d="M23.0625 19.3122C22.5447 19.3122 22.125 19.732 22.125 20.2497C22.125 20.7505 21.93 21.2214 21.5759 21.5755C21.2217 21.9296 20.7509 22.1247 20.2501 22.1247L6.99657 22.1248C7.31658 21.5729 7.49996 20.9323 7.49996 20.2497V3.74998C7.49996 2.71447 8.33944 1.87499 9.37495 1.87499H20.2499C21.2838 1.87499 22.1249 2.71611 22.1249 3.74998L22.125 15.5624C22.1745 16.8063 23.9509 16.8053 24 15.5624L23.9999 3.74998C23.9999 1.68224 22.3176 0 20.2499 0H9.37495C7.30388 0 5.62497 1.67891 5.62497 3.74998V12.2812H3.74998C1.67891 12.2812 0 13.9601 0 16.0312V20.2824C0 22.3279 1.65318 23.9892 3.69874 23.9994C3.70901 23.9995 20.2501 23.9997 20.2501 23.9997C21.2517 23.9997 22.1934 23.6096 22.9017 22.9014C23.61 22.1931 24 21.2513 24 20.2497C24 19.7319 23.5802 19.3122 23.0625 19.3122ZM5.62497 20.2497C5.62497 21.2835 4.78394 22.1246 3.75012 22.1247H3.73484C2.70791 22.1248 1.87499 21.2923 1.87499 20.2654V16.0312C1.87499 14.9956 2.71447 14.1562 3.74998 14.1562H5.62497V20.2497ZM20.203 12.0468C20.203 12.5646 19.7833 12.9843 19.2655 12.9843H10.3124C9.06857 12.9348 9.06951 11.1584 10.3124 11.1093H19.2655C19.7833 11.1093 20.203 11.529 20.203 12.0468ZM20.203 4.68747C20.203 4.16969 19.7833 3.74998 19.2655 3.74998H10.3124C9.79466 3.74998 9.37495 4.16969 9.37495 4.68747V8.39058C9.37495 8.90835 9.79466 9.32807 10.3124 9.32807H19.2655C19.7833 9.32807 20.203 8.90835 20.203 8.39058V4.68747ZM18.328 7.45308H11.2499V5.62497H18.328V7.45308ZM19.2655 16.6405H10.3124C9.06857 16.591 9.06951 14.8146 10.3124 14.7655H19.2655C20.5094 14.815 20.5084 16.5915 19.2655 16.6405ZM15.0468 18.3749C16.2907 18.4244 16.2897 20.2008 15.0468 20.2499H10.3124C9.06857 20.2004 9.06951 18.424 10.3124 18.3749H15.0468Z" fill="#000957"/>
</svg>
